<?xml version="1.0" encoding="UTF-8" standalone="no"?>
<!-- Uploaded to: SVG Repo, www.svgrepo.com, Generator: SVG Repo Mixer Tools -->

<svg
   height="800px"
   width="800px"
   version="1.1"
   viewBox="0 0 64 64"
   xml:space="preserve"
   id="svg7"
   sodipodi:docname="chat.svg"
   inkscape:version="1.4.2 (ebf0e940d0, 2025-05-08)"
   xmlns:inkscape="http://www.inkscape.org/namespaces/inkscape"
   xmlns:sodipodi="http://sodipodi.sourceforge.net/DTD/sodipodi-0.dtd"
   xmlns="http://www.w3.org/2000/svg"
   xmlns:svg="http://www.w3.org/2000/svg"><defs
   id="defs7" /><sodipodi:namedview
   id="namedview7"
   pagecolor="#ffffff"
   bordercolor="#000000"
   borderopacity="0.25"
   inkscape:showpageshadow="2"
   inkscape:pageopacity="0.0"
   inkscape:pagecheckerboard="0"
   inkscape:deskcolor="#d1d1d1"
   inkscape:zoom="1.54"
   inkscape:cx="399.67532"
   inkscape:cy="400"
   inkscape:window-width="3388"
   inkscape:window-height="1410"
   inkscape:window-x="0"
   inkscape:window-y="0"
   inkscape:window-maximized="1"
   inkscape:current-layer="Layer_1" />
<style
   type="text/css"
   id="style1">
	.st0{fill:#77B3D4;}
	.st1{opacity:0.2;}
	.st2{fill:#231F20;}
	.st3{fill:#FFFFFF;}
	.st4{fill:#4F5D73;}
</style>
<g
   id="Layer_1">
	
	<g
   class="st1"
   id="g2"
   style="fill:#00306d;fill-opacity:1">
		<path
   class="st2"
   d="M52,32c0-9.9-9-18-20-18s-20,8.1-20,18c0,9.6,8.3,17.4,18.8,17.9C31.5,53.6,32,56,32,56s5-3,9.6-8.2    C47.8,44.7,52,38.8,52,32z"
   id="path1"
   style="fill:#00306d;fill-opacity:1" />
	</g>
	<g
   id="g3"
   style="fill:#edf5ff;fill-opacity:1">
		<path
   class="st3"
   d="M49,28.8C49,43.8,32,54,32,54s-9.4-42,0-42S49,19.5,49,28.8z"
   id="path2"
   style="fill:#edf5ff;fill-opacity:1" />
	</g>
	<g
   id="g4"
   style="fill:#edf5ff;fill-opacity:1">
		<ellipse
   class="st3"
   cx="32"
   cy="30"
   rx="20"
   ry="18"
   id="ellipse3"
   style="fill:#edf5ff;fill-opacity:1" />
	</g>
	<g
   id="g5"
   style="fill:#003576;fill-opacity:1">
		<circle
   class="st4"
   cx="32"
   cy="30"
   r="2"
   id="circle4"
   style="fill:#003576;fill-opacity:1" />
	</g>
	<g
   id="g6"
   style="fill:#003576;fill-opacity:1">
		<circle
   class="st4"
   cx="40"
   cy="30"
   r="2"
   id="circle5"
   style="fill:#003576;fill-opacity:1" />
	</g>
	<g
   id="g7"
   style="fill:#003576;fill-opacity:1">
		<circle
   class="st4"
   cx="24"
   cy="30"
   r="2"
   id="circle6"
   style="fill:#003576;fill-opacity:1" />
	</g>
</g>
<g
   id="Layer_2">
</g>
</svg>
