<?xml version="1.0" encoding="UTF-8" standalone="no"?>
<!-- Uploaded to: SVG Repo, www.svgrepo.com, Generator: SVG Repo Mixer Tools -->

<svg
   version="1.1"
   id="Capa_1"
   viewBox="0 0 460 460"
   xml:space="preserve"
   width="512"
   height="512"
   sodipodi:docname="read.svg"
   inkscape:version="1.4.2 (ebf0e940d0, 2025-05-08)"
   xmlns:inkscape="http://www.inkscape.org/namespaces/inkscape"
   xmlns:sodipodi="http://sodipodi.sourceforge.net/DTD/sodipodi-0.dtd"
   xmlns="http://www.w3.org/2000/svg"
   xmlns:svg="http://www.w3.org/2000/svg"><defs
   id="defs1" /><sodipodi:namedview
   id="namedview1"
   pagecolor="#ffffff"
   bordercolor="#000000"
   borderopacity="0.25"
   inkscape:showpageshadow="2"
   inkscape:pageopacity="0.0"
   inkscape:pagecheckerboard="0"
   inkscape:deskcolor="#d1d1d1"
   inkscape:zoom="1.7014757"
   inkscape:cx="304.14775"
   inkscape:cy="278.58171"
   inkscape:window-width="3388"
   inkscape:window-height="1410"
   inkscape:window-x="0"
   inkscape:window-y="0"
   inkscape:window-maximized="1"
   inkscape:current-layer="XMLID_1618_" />
<g
   id="XMLID_1618_">
	<path
   id="XMLID_482_"
   style="fill:#2e51aa;fill-opacity:1;stroke-width:1.08883"
   d="M 450,438.47164 H 10 c -5.523,0 -10,-5.30778 -10,-11.85566 V 70.946071 C 0,64.398187 4.477,59.090407 10,59.090407 h 440 c 5.523,0 10,5.30778 10,11.855664 V 426.61598 c 0,6.54788 -4.477,11.85566 -10,11.85566 z" />
	<path
   id="XMLID_481_"
   style="fill:#1d335e;fill-opacity:1;stroke-width:1.08883"
   d="M 250,438.47164 H 210 V 59.090407 h 40 z" />
	<path
   id="XMLID_479_"
   style="fill:#ababab;fill-opacity:1;stroke-width:1.08883"
   d="m 440,343.62632 v 59.27833 c 0,6.54788 -4.477,11.85566 -10,11.85566 H 260 c -16.569,0 -30,-15.92334 -30,-35.567 0,19.64366 -13.431,35.567 -30,35.567 H 30 c -5.523,0 -10,-5.30778 -10,-11.85566 v -59.27833 h 180 c 16.569,0 30,15.92335 30,35.56699 0,-19.64245 13.431,-35.56699 30,-35.56699 z" />
	<path
   id="XMLID_449_"
   style="fill:#f6f6f6;fill-opacity:1;stroke-width:1.08883"
   d="M 440,35.37908 V 379.19331 H 230 20 V 35.37908 c 0,-6.547883 4.477,-11.855663 10,-11.855663 h 170 c 16.569,0 30,15.923342 30,35.56699 0,-19.643648 13.431,-35.56699 30,-35.56699 h 170 c 5.523,0 10,5.30778 10,11.855663 z" />
	<path
   id="XMLID_2813_"
   style="fill:#4c4734;fill-opacity:1;stroke-width:1.08883"
   d="M 415,70.946071 H 295 c -2.761,0 -5,-2.654484 -5,-5.927832 v 0 c 0,-3.273349 2.239,-5.927832 5,-5.927832 h 120 c 2.761,0 5,2.654483 5,5.927832 v 0 c 0,3.273348 -2.239,5.927832 -5,5.927832 z m 5,17.783495 v 0 c 0,-3.273349 -2.239,-5.927832 -5,-5.927832 H 295 c -2.761,0 -5,2.654483 -5,5.927832 v 0 c 0,3.273348 2.239,5.927835 5,5.927835 h 120 c 2.761,0 5,-2.654487 5,-5.927835 z m 0,23.711324 v 0 c 0,-3.27334 -2.239,-5.92783 -5,-5.92783 H 255 c -2.761,0 -5,2.65449 -5,5.92783 v 0 c 0,3.27334 2.239,5.92784 5,5.92784 h 160 c 2.761,0 5,-2.6545 5,-5.92784 z m -20,47.42266 v 0 c 0,-3.27336 -2.239,-5.92784 -5,-5.92784 H 255 c -2.761,0 -5,2.65448 -5,5.92784 v 0 c 0,3.27334 2.239,5.92782 5,5.92782 h 140 c 2.761,0 5,-2.65448 5,-5.92782 z m 20,23.71132 v 0 c 0,-3.27335 -2.239,-5.92783 -5,-5.92783 H 255 c -2.761,0 -5,2.65448 -5,5.92783 v 0 c 0,3.27335 2.239,5.92783 5,5.92783 h 160 c 2.761,0 5,-2.65448 5,-5.92783 z m -10,23.71133 v 0 c 0,-3.27335 -2.239,-5.92784 -5,-5.92784 H 255 c -2.761,0 -5,2.65449 -5,5.92784 v 0 c 0,3.27335 2.239,5.92783 5,5.92783 h 150 c 2.761,0 5,-2.65448 5,-5.92783 z m 10,23.71132 v 0 c 0,-3.27334 -2.239,-5.92783 -5,-5.92783 H 255 c -2.761,0 -5,2.65449 -5,5.92783 v 0 c 0,3.27336 2.239,5.92784 5,5.92784 h 160 c 2.761,0 5,-2.65448 5,-5.92784 z m -20,23.71133 v 0 c 0,-3.27335 -2.239,-5.92783 -5,-5.92783 H 255 c -2.761,0 -5,2.65448 -5,5.92783 v 0 c 0,3.27336 2.239,5.92783 5,5.92783 h 140 c 2.761,0 5,-2.65447 5,-5.92783 z m 20,23.71132 v 0 c 0,-3.27334 -2.239,-5.92782 -5,-5.92782 H 255 c -2.761,0 -5,2.65448 -5,5.92782 v 0 c 0,3.27337 2.239,5.92784 5,5.92784 h 160 c 2.761,0 5,-2.65447 5,-5.92784 z m -10,23.71133 v 0 c 0,-3.27334 -2.239,-5.92783 -5,-5.92783 H 255 c -2.761,0 -5,2.65449 -5,5.92783 v 0 c 0,3.27335 2.239,5.92784 5,5.92784 h 150 c 2.761,0 5,-2.65449 5,-5.92784 z M 280,88.729566 V 65.018239 c 0,-3.273349 -2.239,-5.927832 -5,-5.927832 h -20 c -2.761,0 -5,2.654483 -5,5.927832 v 23.711327 c 0,3.273348 2.239,5.927835 5,5.927835 h 20 c 2.761,0 5,-2.654487 5,-5.927835 z M 415,343.62632 h -10 c -2.761,0 -5,2.65448 -5,5.92784 v 0 c 0,3.27335 2.239,5.92782 5,5.92782 h 10 c 2.761,0 5,-2.65447 5,-5.92782 v 0 c 0,-3.27336 -2.239,-5.92784 -5,-5.92784 z" />
	
	
	<path
   id="XMLID_464_"
   style="fill:#ababab;fill-opacity:1;stroke-width:1.08883"
   d="m 230,379.19331 v 0 c 0,19.64366 -13.431,35.567 -30,35.567 H 30 c -5.523,0 -10,-5.30778 -10,-11.85566 v -59.27833 h 180 c 16.569,0 30,15.92335 30,35.56699 z" />
	<path
   id="XMLID_341_"
   style="fill:#f6f6f6;fill-opacity:1;stroke-width:1.08883"
   d="M 230,59.090407 V 379.19331 H 20 V 35.37908 c 0,-6.547883 4.477,-11.855663 10,-11.855663 h 170 c 16.569,0 30,15.923342 30,35.56699 z" />
	<path
   id="XMLID_340_"
   style="fill:#4c4734;fill-opacity:1;stroke-width:1.08883"
   d="M 205,70.946071 H 85 c -2.761,0 -5,-2.654484 -5,-5.927832 v 0 c 0,-3.273349 2.239,-5.927832 5,-5.927832 h 120 c 2.761,0 5,2.654483 5,5.927832 v 0 c 0,3.273348 -2.239,5.927832 -5,5.927832 z m 5,17.783495 v 0 c 0,-3.273349 -2.239,-5.927832 -5,-5.927832 H 85 c -2.761,0 -5,2.654483 -5,5.927832 v 0 c 0,3.273348 2.239,5.927835 5,5.927835 h 120 c 2.761,0 5,-2.654487 5,-5.927835 z m 0,23.711324 v 0 c 0,-3.27334 -2.239,-5.92783 -5,-5.92783 H 45 c -2.761,0 -5,2.65449 -5,5.92783 v 0 c 0,3.27334 2.239,5.92784 5,5.92784 h 160 c 2.761,0 5,-2.6545 5,-5.92784 z m -20,23.71133 v 0 c 0,-3.27334 -2.239,-5.92784 -5,-5.92784 H 45 c -2.761,0 -5,2.6545 -5,5.92784 v 0 c 0,3.27334 2.239,5.92783 5,5.92783 h 140 c 2.761,0 5,-2.65449 5,-5.92783 z m 20,23.71133 v 0 c 0,-3.27336 -2.239,-5.92784 -5,-5.92784 H 45 c -2.761,0 -5,2.65448 -5,5.92784 v 0 c 0,3.27334 2.239,5.92782 5,5.92782 h 160 c 2.761,0 5,-2.65448 5,-5.92782 z m -10,23.71132 v 0 c 0,-3.27335 -2.239,-5.92783 -5,-5.92783 H 45 c -2.761,0 -5,2.65448 -5,5.92783 v 0 c 0,3.27335 2.239,5.92783 5,5.92783 h 150 c 2.761,0 5,-2.65448 5,-5.92783 z m 10,47.42265 v 0 c 0,-3.27334 -2.239,-5.92783 -5,-5.92783 H 45 c -2.761,0 -5,2.65449 -5,5.92783 v 0 c 0,3.27336 2.239,5.92784 5,5.92784 h 160 c 2.761,0 5,-2.65448 5,-5.92784 z m -20,23.71133 v 0 c 0,-3.27335 -2.239,-5.92783 -5,-5.92783 H 45 c -2.761,0 -5,2.65448 -5,5.92783 v 0 c 0,3.27336 2.239,5.92783 5,5.92783 h 140 c 2.761,0 5,-2.65447 5,-5.92783 z m 20,23.71132 v 0 c 0,-3.27334 -2.239,-5.92782 -5,-5.92782 H 45 c -2.761,0 -5,2.65448 -5,5.92782 v 0 c 0,3.27337 2.239,5.92784 5,5.92784 h 160 c 2.761,0 5,-2.65447 5,-5.92784 z m -10,23.71133 v 0 c 0,-3.27334 -2.239,-5.92783 -5,-5.92783 H 45 c -2.761,0 -5,2.65449 -5,5.92783 v 0 c 0,3.27335 2.239,5.92784 5,5.92784 h 150 c 2.761,0 5,-2.65449 5,-5.92784 z M 70,88.729566 V 65.018239 C 70,61.74489 67.761,59.090407 65,59.090407 H 45 c -2.761,0 -5,2.654483 -5,5.927832 v 23.711327 c 0,3.273348 2.239,5.927835 5,5.927835 h 20 c 2.761,0 5,-2.654487 5,-5.927835 z M 55,343.62632 H 45 c -2.761,0 -5,2.65448 -5,5.92784 v 0 c 0,3.27335 2.239,5.92782 5,5.92782 h 10 c 2.761,0 5,-2.65447 5,-5.92782 v 0 c 0,-3.27336 -2.239,-5.92784 -5,-5.92784 z" />
</g>















</svg>
