<?xml version="1.0" encoding="UTF-8" standalone="no"?>
<!-- Uploaded to: SVG Repo, www.svgrepo.com, Generator: SVG Repo Mixer Tools -->

<svg
   height="800px"
   width="800px"
   version="1.1"
   id="Layer_1"
   viewBox="0 0 503.82 503.82"
   xml:space="preserve"
   sodipodi:docname="send.svg"
   inkscape:version="1.4.2 (ebf0e940d0, 2025-05-08)"
   xmlns:inkscape="http://www.inkscape.org/namespaces/inkscape"
   xmlns:sodipodi="http://sodipodi.sourceforge.net/DTD/sodipodi-0.dtd"
   xmlns="http://www.w3.org/2000/svg"
   xmlns:svg="http://www.w3.org/2000/svg"><defs
   id="defs10" /><sodipodi:namedview
   id="namedview10"
   pagecolor="#ffffff"
   bordercolor="#000000"
   borderopacity="0.25"
   inkscape:showpageshadow="2"
   inkscape:pageopacity="0.0"
   inkscape:pagecheckerboard="0"
   inkscape:deskcolor="#d1d1d1"
   inkscape:zoom="1.54"
   inkscape:cx="399.67532"
   inkscape:cy="400"
   inkscape:window-width="3388"
   inkscape:window-height="1410"
   inkscape:window-x="0"
   inkscape:window-y="0"
   inkscape:window-maximized="1"
   inkscape:current-layer="g10" />
<g
   transform="translate(1 1)"
   id="g10">
	<path
   style="fill:#e2e3e5"
   d="M 491.909,92.6852 221.64,291.6102 389.509,400.7252 502.82,94.3642 c -0.839,0 -1.678,-1.679 -10.911,-1.679"
   id="path1" />
	<path
   style="fill:#B6B6B6;"
   d="M175.476,408.287l99.043-66.308"
   id="path2" />
	<g
   id="g3"
   style="fill:#c8e1eb;fill-opacity:1">
		<polygon
   style="fill:#c8e1eb;fill-opacity:1"
   points="209.05,299.173 175.476,408.287 274.519,341.979   "
   id="polygon2" />
		<polygon
   style="fill:#c8e1eb;fill-opacity:1"
   points="209.05,299.173 176.316,408.287 150.296,265.599 494.427,89.336   "
   id="polygon3" />
		<path
   style="fill:#c8e1eb;fill-opacity:1"
   d="M486.034,104.445c-3.357,0-5.875-1.679-7.554-4.197L209.05,299.173l167.869,109.115    l111.633-303.843C488.552,104.445,487.712,104.445,486.034,104.445"
   id="path3" />
	</g>
	<polygon
   style="fill:#e6f2fc;fill-opacity:1"
   points="444.066,122.91 209.05,299.173 360.132,391.5 460.853,114.517  "
   id="polygon4" />
	<path
   style="fill:#FFFFFF;"
   d="M466.729,95.212L6.768,190.058l143.528,75.541l323.148-165.351   C470.086,99.409,468.407,97.73,466.729,95.212"
   id="path4" />
	<path
   style="fill:#e6f2fc;fill-opacity:1"
   d="M 444.066,104.4406 23.382269,193.49704 150.296,255.5226 449.942,109.4766 c -2.518,-0.839 -5.036,-2.518 -5.876,-5.036"
   id="path5"
   sodipodi:nodetypes="ccccc" />
	<g
   id="g9"
   style="fill:#99b2bf;fill-opacity:1">
		<path
   style="fill:#99b2bf;fill-opacity:1"
   d="M376.919,416.681c-1.679,0-3.357-0.839-4.197-1.679L204.853,305.887    c-2.518-0.839-4.197-3.357-4.197-6.715c0-2.518,0.839-5.036,3.357-6.715l201.443-147.725l-250.964,128.42    c-2.518,0.839-5.036,0.839-7.554,0L3.411,197.612c-3.357-1.679-5.036-5.036-4.197-8.393c0-4.197,2.518-6.715,5.875-7.554    l486.82-100.721c1.679,0,2.518,0,4.197,0l0,0l0,0l0,0l0,0l0,0l0,0l0,0l0,0l0,0l0,0l0,0c1.679,0.839,3.357,1.679,5.036,3.357l0,0    l0,0c0,0,0,0,0,0.839c1.679,1.679,1.679,3.357,1.679,5.036l0,0l0,0c0,0.839,0,0.839,0,1.679v0.839L385.312,411.645    c-0.839,2.518-2.518,4.197-5.036,5.036C378.597,416.681,377.758,416.681,376.919,416.681z M224.158,298.333l148.564,96.525    l104.079-282.02L224.158,298.333z M31.948,193.415l118.348,62.951L435.673,110.32L31.948,193.415z"
   id="path6" />
		<path
   style="fill:#99b2bf;fill-opacity:1"
   d="M175.476,416.681c-2.518,0-5.036-1.679-6.715-3.357c-2.518-4.197-1.679-9.233,2.518-11.751    l99.043-66.308c4.197-2.518,9.233-1.679,11.751,2.518c2.518,4.197,1.679,9.233-2.518,11.751l-99.043,66.308    C178.834,415.841,177.155,416.681,175.476,416.681z"
   id="path7" />
		<path
   style="fill:#99b2bf;fill-opacity:1"
   d="M176.316,416.681C175.476,416.681,175.476,416.681,176.316,416.681    c-4.197,0-7.554-3.357-8.393-6.715l-26.02-142.689c-0.839-3.357,0.839-7.554,4.197-9.233L490.23,81.782    c4.197-1.679,8.393-0.839,10.911,3.357c2.518,3.357,1.679,8.393-2.518,10.911l-282.02,208.157L183.87,410.805    C183.03,414.163,179.673,416.681,176.316,416.681z M159.529,270.635l18.466,102.4l22.662-75.541    c0.839-1.679,1.679-3.357,3.357-4.197l201.443-147.725L159.529,270.635z"
   id="path8" />
		<path
   style="fill:#99b2bf;fill-opacity:1"
   d="M175.476,416.681c-1.679,0-3.357-0.839-5.036-1.679c-2.518-2.518-4.197-5.875-3.357-9.233    l33.574-109.115c0.839-2.518,2.518-4.197,5.036-5.036c2.518-0.839,5.036-0.839,7.554,0.839l65.469,42.807    c2.518,1.679,4.197,4.197,4.197,6.715s-1.679,5.875-3.357,6.715l-99.043,66.308C178.834,415.841,177.155,416.681,175.476,416.681z     M214.086,312.602l-23.502,75.541l68.826-46.164L214.086,312.602z"
   id="path9" />
	</g>
</g>
</svg>
