<?xml version="1.0" encoding="UTF-8" standalone="no"?>
<!-- Uploaded to: SVG Repo, www.svgrepo.com, Generator: SVG Repo Mixer Tools -->

<svg
   version="1.1"
   id="Uploaded to svgrepo.com"
   width="800px"
   height="800px"
   viewBox="0 0 32 32"
   xml:space="preserve"
   sodipodi:docname="undo.svg"
   inkscape:version="1.4.2 (ebf0e940d0, 2025-05-08)"
   xmlns:inkscape="http://www.inkscape.org/namespaces/inkscape"
   xmlns:sodipodi="http://sodipodi.sourceforge.net/DTD/sodipodi-0.dtd"
   xmlns="http://www.w3.org/2000/svg"
   xmlns:svg="http://www.w3.org/2000/svg"><defs
   id="defs1" /><sodipodi:namedview
   id="namedview1"
   pagecolor="#ffffff"
   bordercolor="#000000"
   borderopacity="0.25"
   inkscape:showpageshadow="2"
   inkscape:pageopacity="0.0"
   inkscape:pagecheckerboard="0"
   inkscape:deskcolor="#d1d1d1"
   inkscape:zoom="1.54"
   inkscape:cx="399.67532"
   inkscape:cy="400"
   inkscape:window-width="3388"
   inkscape:window-height="1410"
   inkscape:window-x="0"
   inkscape:window-y="0"
   inkscape:window-maximized="1"
   inkscape:current-layer="Uploaded to svgrepo.com" />
<style
   type="text/css"
   id="style1">
	.sharpcorners_een{fill:#111918;}
	.st0{fill:#111918;}
</style>
<path
   class="sharpcorners_een"
   d="m 26.24,18.08 c 0,6.065 -4.935,11 -11,11 -6.065,0 -11,-4.935 -11,-11 0,-2.938 0.185,-4.501 2.262,-6.578 L 9.33,14.33 c -1.322,1.322 -1.09,1.88 -1.09,3.75 0,3.859 3.141,7 7,7 3.859,0 7,-3.141 7,-7 0,-1.869 -0.729,-3.628 -2.051,-4.95 -1.109,-1.11 -2.526,-1.794 -4.058,-1.987 l 2.523,2.523 -2.828,2.828 L 8.412,9.08 15.826,1.666 18.654,4.494 16.03,7.118 c 2.64,0.187 5.099,1.294 6.989,3.183 2.077,2.08 3.221,4.841 3.221,7.779 z"
   id="path1"
   sodipodi:nodetypes="sssccssscccccccccs"
   style="fill:#002f6c;fill-opacity:1" />
<g
   inkscape:groupmode="layer"
   id="layer1"
   inkscape:label="Layer 1"><path
     class="sharpcorners_een"
     d="m 26.642597,17.966727 c 0,6.065 -4.935,11 -11,11 -6.0649996,0 -10.9999996,-4.935 -10.9999996,-11 0,-2.938 0.185,-4.501 2.262,-6.578 l 2.828,2.828 c -1.322,1.322 -1.09,1.88 -1.09,3.75 0,3.859 3.1409996,7 6.9999996,7 3.859,0 7,-3.141 7,-7 0,-1.869 -0.729,-3.628 -2.051,-4.95 -1.109,-1.11 -2.526,-1.794 -4.058,-1.987 l 2.523,2.523 -2.828,2.828 -7.4139996,-7.4139997 7.4139996,-7.414 2.828,2.828 -2.624,2.624 c 2.64,0.187 5.099,1.294 6.989,3.1829997 2.077,2.08 3.221,4.841 3.221,7.779 z"
     id="path1-5"
     sodipodi:nodetypes="sssccssscccccccccs"
     style="fill:#e8f2ff;fill-opacity:1" /></g></svg>
